PathFileType	4	(X/Y/Z)	 New Session 103.trc
DataRate	CameraRate	NumFrames	NumMarkers	Units	OrigDataRate	OrigDataStartFrame	OrigNumFrames
100	100	24	14	m	100	311	620
Frame#	Time	C7			T8			IJ			PX			AA			AC			AI			TS			SC			GH			LE			ME			US			RS			
		X1	Y1	Z1	X2	Y2	Z2	X3	Y3	Z3	X4	Y4	Z4	X5	Y5	Z5	X6	Y6	Z6	X7	Y7	Z7	X8	Y8	Z8	X9	Y9	Z9	X10	Y10	Z10	X11	Y11	Z11	X12	Y12	Z12	X13	Y13	Z13	X14	Y14	Z14	
311	3.1100	0.029759	0.098522	0.157392	0.024876	-0.116091	0.224136	0.002137	-0.000822	-0.007618	-0.000990	-0.143739	-0.076547	0.228328	-0.008774	0.126758	0.173771	0.038220	0.063142	0.111779	0.017230	0.193004	0.109460	-0.098665	0.223700	0.027333	0.006674	-0.002990	0.235786	0.007474	0.085237	0.307555	-0.223171	-0.078196	0.211943	-0.259495	-0.103556	0.185128	0.007853	-0.097292	0.248525	0.009253	-0.051194	
312	3.1200	0.029744	0.098507	0.157370	0.024877	-0.116099	0.224111	0.002099	-0.000822	-0.007657	-0.000993	-0.143756	-0.076559	0.228310	-0.008757	0.126723	0.173759	0.038226	0.063094	0.111766	0.017231	0.192964	0.109463	-0.098660	0.223666	0.027319	0.006667	-0.003007	0.235794	0.007499	0.085188	0.307496	-0.223198	-0.078193	0.211848	-0.259482	-0.103506	0.184949	0.007769	-0.097556	0.248415	0.009259	-0.051541	
313	3.1300	0.029734	0.098492	0.157345	0.024880	-0.116103	0.224096	0.002061	-0.000820	-0.007698	-0.000999	-0.143770	-0.076575	0.228301	-0.008740	0.126680	0.173751	0.038241	0.063042	0.111752	0.017226	0.192926	0.109461	-0.098662	0.223628	0.027279	0.006684	-0.003074	0.235809	0.007526	0.085140	0.307443	-0.223229	-0.078197	0.211769	-0.259518	-0.103470	0.184782	0.007692	-0.097764	0.248325	0.009265	-0.051825	
314	3.1400	0.029725	0.098486	0.157320	0.024886	-0.116103	0.224088	0.002025	-0.000815	-0.007739	-0.001008	-0.143780	-0.076595	0.228291	-0.008725	0.126631	0.173743	0.038263	0.062989	0.111741	0.017220	0.192890	0.109455	-0.098668	0.223587	0.027241	0.006700	-0.003134	0.235826	0.007555	0.085096	0.307397	-0.223258	-0.078211	0.211722	-0.259622	-0.103431	0.184635	0.007621	-0.097923	0.248248	0.009273	-0.052048	
315	3.1500	0.029714	0.098496	0.157298	0.024894	-0.116100	0.224089	0.001989	-0.000807	-0.007781	-0.001020	-0.143785	-0.076622	0.228277	-0.008712	0.126575	0.173732	0.038289	0.062942	0.111730	0.017222	0.192854	0.109448	-0.098676	0.223544	0.027214	0.006712	-0.003174	0.235841	0.007589	0.085053	0.307354	-0.223285	-0.078241	0.211716	-0.259797	-0.103377	0.184512	0.007571	-0.098035	0.248182	0.009279	-0.052217	
316	3.1600	0.029698	0.098523	0.157282	0.024903	-0.116094	0.224098	0.001954	-0.000797	-0.007823	-0.001034	-0.143785	-0.076655	0.228263	-0.008701	0.126513	0.173718	0.038318	0.062899	0.111719	0.017234	0.192817	0.109443	-0.098680	0.223499	0.027194	0.006723	-0.003202	0.235851	0.007629	0.085008	0.307301	-0.223311	-0.078286	0.211746	-0.260022	-0.103308	0.184412	0.007547	-0.098104	0.248118	0.009281	-0.052343	
317	3.1700	0.029673	0.098564	0.157271	0.024915	-0.116085	0.224113	0.001918	-0.000786	-0.007864	-0.001053	-0.143781	-0.076692	0.228252	-0.008690	0.126447	0.173705	0.038350	0.062855	0.111709	0.017256	0.192778	0.109443	-0.098680	0.223451	0.027176	0.006735	-0.003228	0.235857	0.007673	0.084961	0.307219	-0.223335	-0.078342	0.211787	-0.260255	-0.103238	0.184325	0.007537	-0.098139	0.248038	0.009276	-0.052433	
318	3.1800	0.029643	0.098607	0.157261	0.024928	-0.116074	0.224133	0.001882	-0.000774	-0.007904	-0.001075	-0.143772	-0.076736	0.228246	-0.008675	0.126381	0.173687	0.038379	0.062808	0.111699	0.017280	0.192736	0.109449	-0.098674	0.223401	0.027149	0.006748	-0.003255	0.235860	0.007713	0.084913	0.307098	-0.223350	-0.078408	0.211809	-0.260447	-0.103188	0.184237	0.007520	-0.098148	0.247932	0.009264	-0.052493	
319	3.1900	0.029614	0.098635	0.157241	0.024942	-0.116061	0.224159	0.001843	-0.000763	-0.007943	-0.001102	-0.143762	-0.076784	0.228240	-0.008656	0.126317	0.173663	0.038401	0.062756	0.111689	0.017301	0.192690	0.109460	-0.098663	0.223351	0.027118	0.006755	-0.003285	0.235862	0.007744	0.084865	0.306962	-0.223356	-0.078482	0.211794	-0.260567	-0.103172	0.184136	0.007490	-0.098142	0.247800	0.009249	-0.052526	
320	3.2000	0.029592	0.098642	0.157205	0.024957	-0.116048	0.224189	0.001801	-0.000753	-0.007981	-0.001134	-0.143756	-0.076833	0.228230	-0.008640	0.126254	0.173634	0.038411	0.062703	0.111682	0.017315	0.192640	0.109473	-0.098651	0.223300	0.027089	0.006755	-0.003317	0.235862	0.007760	0.084813	0.306839	-0.223357	-0.078564	0.211738	-0.260621	-0.103190	0.184015	0.007453	-0.098128	0.247663	0.009231	-0.052539	
321	3.2100	0.029579	0.098627	0.157155	0.024971	-0.116033	0.224221	0.001753	-0.000746	-0.008017	-0.001169	-0.143756	-0.076877	0.228213	-0.008631	0.126188	0.173607	0.038414	0.062650	0.111677	0.017322	0.192588	0.109484	-0.098639	0.223246	0.027062	0.006755	-0.003351	0.235863	0.007768	0.084754	0.306737	-0.223360	-0.078652	0.211648	-0.260630	-0.103229	0.183880	0.007416	-0.098109	0.247546	0.009210	-0.052542	
322	3.2200	0.029572	0.098604	0.157097	0.024984	-0.116018	0.224254	0.001700	-0.000742	-0.008052	-0.001204	-0.143764	-0.076910	0.228188	-0.008630	0.126112	0.173584	0.038412	0.062595	0.111675	0.017324	0.192533	0.109493	-0.098630	0.223193	0.027029	0.006760	-0.003382	0.235868	0.007774	0.084683	0.306653	-0.223366	-0.078738	0.211537	-0.260621	-0.103272	0.183740	0.007382	-0.098093	0.247460	0.009185	-0.052544	
323	3.2300	0.029566	0.098583	0.157039	0.024994	-0.116001	0.224286	0.001642	-0.000742	-0.008086	-0.001235	-0.143781	-0.076932	0.228162	-0.008631	0.126027	0.173561	0.038407	0.062538	0.111671	0.017325	0.192476	0.109497	-0.098622	0.223140	0.026993	0.006765	-0.003408	0.235874	0.007781	0.084609	0.306577	-0.223374	-0.078821	0.211422	-0.260617	-0.103308	0.183599	0.007349	-0.098096	0.247394	0.009157	-0.052561	
324	3.2400	0.029554	0.098575	0.156985	0.024999	-0.115984	0.224315	0.001580	-0.000746	-0.008118	-0.001265	-0.143802	-0.076945	0.228145	-0.008626	0.125938	0.173533	0.038401	0.062479	0.111661	0.017329	0.192418	0.109497	-0.098613	0.223091	0.026962	0.006765	-0.003433	0.235874	0.007792	0.084538	0.306495	-0.223376	-0.078898	0.211319	-0.260630	-0.103330	0.183453	0.007320	-0.098129	0.247323	0.009134	-0.052607	
325	3.2500	0.029532	0.098585	0.156936	0.025000	-0.115964	0.224342	0.001516	-0.000754	-0.008149	-0.001298	-0.143822	-0.076954	0.228148	-0.008611	0.125849	0.173499	0.038397	0.062420	0.111638	0.017340	0.192362	0.109494	-0.098601	0.223043	0.026938	0.006755	-0.003458	0.235864	0.007804	0.084471	0.306404	-0.223369	-0.078976	0.211237	-0.260662	-0.103336	0.183292	0.007291	-0.098195	0.247228	0.009123	-0.052691	
326	3.2600	0.029501	0.098609	0.156887	0.024994	-0.115944	0.224363	0.001451	-0.000766	-0.008181	-0.001334	-0.143838	-0.076962	0.228175	-0.008588	0.125762	0.173461	0.038397	0.062363	0.111602	0.017359	0.192311	0.109488	-0.098587	0.222997	0.026915	0.006740	-0.003485	0.235844	0.007820	0.084403	0.306311	-0.223353	-0.079058	0.211178	-0.260709	-0.103329	0.183118	0.007259	-0.098288	0.247102	0.009128	-0.052818	
327	3.2700	0.029466	0.098640	0.156835	0.024983	-0.115922	0.224377	0.001386	-0.000779	-0.008214	-0.001372	-0.143851	-0.076971	0.228213	-0.008560	0.125677	0.173419	0.038405	0.062307	0.111553	0.017384	0.192265	0.109479	-0.098570	0.222950	0.026887	0.006723	-0.003521	0.235814	0.007842	0.084332	0.306221	-0.223332	-0.079142	0.211134	-0.260765	-0.103315	0.182932	0.007229	-0.098397	0.246945	0.009149	-0.052986	
328	3.2800	0.029425	0.098672	0.156780	0.024966	-0.115900	0.224382	0.001323	-0.000793	-0.008250	-0.001410	-0.143865	-0.076982	0.228234	-0.008531	0.125601	0.173372	0.038412	0.062250	0.111500	0.017412	0.192220	0.109465	-0.098552	0.222903	0.026853	0.006708	-0.003566	0.235780	0.007868	0.084257	0.306140	-0.223315	-0.079224	0.211097	-0.260823	-0.103300	0.182748	0.007206	-0.098524	0.246764	0.009185	-0.053196	
329	3.2900	0.029378	0.098703	0.156726	0.024945	-0.115878	0.224375	0.001260	-0.000808	-0.008291	-0.001449	-0.143882	-0.076997	0.228225	-0.008503	0.125531	0.173318	0.038408	0.062188	0.111454	0.017438	0.192171	0.109447	-0.098534	0.222856	0.026814	0.006694	-0.003615	0.235742	0.007893	0.084182	0.306067	-0.223311	-0.079304	0.211058	-0.260878	-0.103289	0.182582	0.007187	-0.098680	0.246577	0.009226	-0.053443	
330	3.3000	0.029327	0.098731	0.156677	0.024921	-0.115857	0.224354	0.001197	-0.000822	-0.008338	-0.001492	-0.143898	-0.077017	0.228194	-0.008479	0.125461	0.173262	0.038398	0.062122	0.111421	0.017461	0.192115	0.109426	-0.098517	0.222809	0.026778	0.006680	-0.003659	0.235701	0.007909	0.084106	0.306001	-0.223319	-0.079379	0.211009	-0.260924	-0.103286	0.182440	0.007167	-0.098879	0.246407	0.009265	-0.053721	
331	3.3100	0.029276	0.098754	0.156631	0.024895	-0.115837	0.224313	0.001131	-0.000835	-0.008392	-0.001541	-0.143910	-0.077039	0.228153	-0.008463	0.125390	0.173211	0.038392	0.062054	0.111387	0.017483	0.192059	0.109404	-0.098500	0.222763	0.026743	0.006665	-0.003693	0.235657	0.007914	0.084030	0.305937	-0.223334	-0.079452	0.210943	-0.260956	-0.103293	0.182318	0.007148	-0.099131	0.246268	0.009296	-0.054030	
332	3.3200	0.029226	0.098772	0.156584	0.024870	-0.115821	0.224250	0.001062	-0.000848	-0.008455	-0.001595	-0.143914	-0.077064	0.228111	-0.008453	0.125312	0.173166	0.038397	0.061988	0.111344	0.017509	0.192009	0.109383	-0.098482	0.222713	0.026702	0.006652	-0.003721	0.235611	0.007912	0.083950	0.305877	-0.223349	-0.079523	0.210854	-0.260975	-0.103316	0.182213	0.007135	-0.099437	0.246162	0.009326	-0.054372	
333	3.3300	0.029178	0.098788	0.156535	0.024847	-0.115808	0.224160	0.000987	-0.000859	-0.008526	-0.001649	-0.143911	-0.077091	0.228068	-0.008444	0.125228	0.173117	0.038403	0.061919	0.111295	0.017540	0.191963	0.109365	-0.098462	0.222657	0.026653	0.006645	-0.003756	0.235560	0.007912	0.083863	0.305824	-0.223359	-0.079592	0.210743	-0.260988	-0.103359	0.182126	0.007127	-0.099800	0.246078	0.009366	-0.054754	
334	3.3400	0.029135	0.098805	0.156484	0.024826	-0.115799	0.224038	0.000909	-0.000871	-0.008605	-0.001700	-0.143909	-0.077117	0.228029	-0.008431	0.125143	0.173061	0.038403	0.061846	0.111252	0.017572	0.191914	0.109351	-0.098441	0.222592	0.026596	0.006640	-0.003799	0.235512	0.007924	0.083777	0.305779	-0.223365	-0.079660	0.210624	-0.261005	-0.103418	0.182052	0.007125	-0.100220	0.246003	0.009420	-0.055183	
